<?xml version="1.0" standalone="no"?>
<svg viewBox="0 0 200 200" xmlns="http://www.w3.org/2000/svg">
  <path fill="#D498EC" d="M38.9,-73.7C46.2,-63.1,45,-44.2,49.3,-30.6C53.6,-16.9,63.3,-8.4,62.8,-0.3C62.2,7.8,51.4,15.6,46.9,28.8C42.3,42,44,60.5,37.2,69.1C30.4,77.6,15.2,76.3,0.3,75.8C-14.6,75.3,-29.3,75.7,-37.1,67.7C-45,59.8,-46.1,43.5,-51.8,30.8C-57.6,18.2,-67.9,9.1,-73.3,-3.1C-78.7,-15.3,-79.1,-30.6,-69.8,-37.1C-60.5,-43.5,-41.4,-41.1,-28.1,-48.3C-14.9,-55.4,-7.4,-72.2,4.2,-79.5C15.8,-86.7,31.6,-84.3,38.9,-73.7Z" transform="translate(100 100)" />
</svg>
